<?xml version="1.0" encoding="UTF-8" standalone="no"?>
<!-- Created with Inkscape (http://www.inkscape.org/) -->

<svg
   width="210mm"
   height="297mm"
   viewBox="0 0 210 297"
   version="1.1"
   id="svg1"
   inkscape:version="1.4 (e7c3feb100, 2024-10-09)"
   sodipodi:docname="fish.svg"
   xmlns:inkscape="http://www.inkscape.org/namespaces/inkscape"
   xmlns:sodipodi="http://sodipodi.sourceforge.net/DTD/sodipodi-0.dtd"
   xmlns="http://www.w3.org/2000/svg"
   xmlns:svg="http://www.w3.org/2000/svg">
  <sodipodi:namedview
     id="namedview1"
     pagecolor="#ffffff"
     bordercolor="#000000"
     borderopacity="0.25"
     inkscape:showpageshadow="2"
     inkscape:pageopacity="0.0"
     inkscape:pagecheckerboard="0"
     inkscape:deskcolor="#d1d1d1"
     inkscape:document-units="mm"
     inkscape:zoom="0.69486532"
     inkscape:cx="397.19927"
     inkscape:cy="561.25984"
     inkscape:window-width="1920"
     inkscape:window-height="998"
     inkscape:window-x="0"
     inkscape:window-y="0"
     inkscape:window-maximized="1"
     inkscape:current-layer="layer1" />
  <defs
     id="defs1" />
  <g
     inkscape:label="Layer 1"
     inkscape:groupmode="layer"
     id="layer1">
    <path
       style="fill:#000000;stroke-width:0.264583"
       d="m 97.85769,63.58846 c -2.491357,0.08657 -8.03021,2.249535 -9.899999,3.807693 -0.35156,0.292965 -0.404191,0.85643 -0.761537,1.142307 -0.313415,0.250732 -0.783315,0.201273 -1.14231,0.380769 -1.288999,0.644502 -7.686511,6.234565 -8.376922,7.615386 -0.690983,1.381969 -0.405763,3.146126 -0.761537,4.56923 -1.071796,4.287176 0.380767,7.211324 0.380767,11.423078 0,3.3 0,6.599999 0,9.899997 0,1.11886 -0.272807,2.71646 0,3.80769 0.563896,2.25559 0.718505,4.52293 1.142309,6.85385 0.502653,2.7646 1.125937,5.59696 1.523077,8.37692 0.181885,1.27319 0.148032,8.67299 0.38077,9.13847 0.703246,1.40649 0.525978,3.68184 0.761537,5.33076 0.130675,0.91473 0.630864,1.75066 0.761539,2.66539 0.05385,0.37694 -0.07468,0.76893 0,1.14231 0.178107,0.89054 0.964198,1.77484 1.142307,2.66538 0.07468,0.37338 -0.0626,0.76672 0,1.14231 0.269182,1.61509 1.257991,3.27752 1.903846,4.56923 0.413232,0.82646 1.414915,2.01201 0.76154,2.66538 -0.08975,0.0898 -0.291023,-0.0897 -0.38077,0 -0.08975,0.0898 0.02088,0.25558 0,0.38077 -0.106397,0.63838 -0.223805,1.27599 -0.38077,1.90385 -0.350985,1.40394 -0.634179,2.83345 -1.142306,4.18846 -0.765273,2.04073 -2.553976,4.5925 -3.807693,6.47308 -0.126841,0.19026 -1.824794,3.57053 -1.903846,3.80769 -0.549529,1.64859 0.727913,-0.13995 -0.38077,1.52308 -0.707152,1.06073 -2.301976,2.19566 -3.046153,3.04615 -1.759911,2.01133 -3.281913,4.38797 -4.95,6.47308 -0.336391,0.42049 -0.711518,0.81921 -1.142309,1.1423 -0.101537,0.0762 -0.380768,-0.12692 -0.380768,0 0,0.53807 5.415585,0.38077 5.711537,0.38077 7.630099,0 15.218076,-0.38077 22.846154,-0.38077 0.76154,0 1.533438,0.1252 2.284616,0 1.665341,-0.27755 0.587441,-0.59291 2.284621,-0.38077 6.86428,0.85804 2.79132,0.76154 6.85384,0.76154 6.43878,0 12.99554,-0.37786 19.41923,0 5.21144,0.30656 10.39027,1.14231 15.61154,1.14231 0.12692,0 -0.25385,0 -0.38077,0 -0.53071,0 -1.14966,-0.1007 -1.52308,-0.38077 -1.26923,-0.95192 -0.84615,-1.05769 -1.90384,-1.90384 -0.7147,-0.57176 -1.56992,-0.95133 -2.28462,-1.52308 -0.91375,-0.731 -1.70328,-1.61854 -2.66538,-2.28462 -1.7453,-1.20828 -2.41781,-1.01851 -4.18846,-1.90384 -1.2313,-0.61565 -2.24551,-1.60952 -3.42693,-2.28462 -1.23207,-0.70404 -2.52371,-1.29962 -3.80769,-1.90384 -3.13028,-1.47308 -6.99706,-3.01471 -9.9,-4.95 -0.94714,-0.63143 -0.0438,-0.0875 -0.38077,-0.76154 -0.33708,-0.67417 -1.41655,-0.87335 -1.90385,-1.52308 -1.07036,-1.42716 -2.24259,-2.80674 -3.42692,-4.18846 -1.24522,-1.45276 -3.13235,-2.6043 -4.18846,-4.18846 -0.15743,-0.23615 -0.18009,-0.56086 -0.38077,-0.76154 -0.20068,-0.20068 -0.56085,-0.18009 -0.76154,-0.38077 -0.92401,-0.92401 -1.17899,-2.33964 -1.90384,-3.42692 -0.199137,-0.2987 -0.562408,-0.46284 -0.761541,-0.76154 -0.471085,-0.70663 2.450541,-0.16593 2.665381,-0.38077 1.04664,-1.04664 1.67212,-2.4602 2.28462,-3.80769 1.06338,-2.33943 1.47926,-5.19932 2.28461,-7.61539 1.47792,-4.43375 0.16601,2.66847 1.52308,-4.56923 0.62114,-3.31275 1.04095,-6.62097 1.90385,-9.9 1.18357,-4.49757 1.3065,-3.48637 2.28461,-8.37692 0.80178,-4.00887 -0.0328,-1.88843 0.76154,-5.33077 1.02576,-4.44495 2.67805,-8.833677 3.42692,-13.326923 0.35492,-2.129491 -0.30004,-4.37432 -0.38077,-6.473077 -0.22896,-5.952926 0.28338,-11.945336 0,-17.896154 -0.0667,-1.400323 -0.31408,-2.788137 -0.38077,-4.18846 -0.12744,-2.676395 0.1628,-11.0607 -2.66538,-12.946155 -0.1669,-0.111268 -1.44021,0 -1.52308,0 -4.49219,0 -6.08139,0.946465 -9.51923,2.665386 -1.02783,0.513916 -2.457352,0.657524 -3.426921,1.142307 -4.900429,2.450216 3.342591,-1.147133 -2.665383,1.523076 -0.02749,0.01222 -4.424209,1.686314 -4.569232,1.903847 -0.140809,0.211211 0.134538,0.546277 0,0.761539 -0.289153,0.462646 -4.028001,5.551078 -4.56923,6.092307 -0.200684,0.200684 -0.560856,0.180086 -0.76154,0.38077 -0.63301,0.63301 -0.369133,1.880576 -0.761537,2.665383 -0.249687,0.499375 -4.96597,5.330769 -5.330769,5.330769"
       id="path1" />
  </g>
</svg>
